Coordinates
version=1
nRows=39
nColumns=38
inDegrees=no

Units are S.I. units (second, meters, Newtons, ...)
If the header above contains a line with 'inDegrees', this indicates whether rotational values are in degrees (yes) or radians (no).

endheader
time	pelvis_tilt	pelvis_list	pelvis_rotation	pelvis_tx	pelvis_ty	pelvis_tz	hip_flexion_r	hip_adduction_r	hip_rotation_r	knee_angle_r	ankle_angle_r	subtalar_angle_r	mtp_angle_r	hip_flexion_l	hip_adduction_l	hip_rotation_l	knee_angle_l	ankle_angle_l	subtalar_angle_l	mtp_angle_l	lumbar_extension	lumbar_bending	lumbar_rotation	arm_flex_r	arm_add_r	arm_rot_r	elbow_flex_r	pro_sup_r	wrist_flex_r	wrist_dev_r	arm_flex_l	arm_add_l	arm_rot_l	elbow_flex_l	pro_sup_l	wrist_flex_l	wrist_dev_l
5	0.553986	1.30952	1.10306	0.807154	0.905753	0.928551	0.739958	-0.00480495	-0.323525	0.471086	-0.0295822	0	0	0.0159833	-0.111863	-0.12568	0.283454	0.322568	0	0	0.0493623	0.161215	-0.0116264	0.399081	-0.316269	0.0474991	1.68332	1.5708	0	0	0.593331	-0.292986	0.347985	1.40129	1.5708	0	0
5.01	0.56289	1.30944	1.09177	0.809045	0.914961	0.929541	0.73778	0.000530936	-0.313366	0.486486	-0.0294183	0	0	0.0170253	-0.119014	-0.130608	0.308115	0.317747	0	0	0.0514763	0.163882	-0.00654856	0.389057	-0.314087	0.0474398	1.68787	1.5708	0	0	0.585894	-0.293009	0.344833	1.39939	1.5708	0	0
5.02	0.540539	1.31359	1.11784	0.810119	0.923564	0.931304	0.734663	-0.00775438	-0.306478	0.501112	-0.0281026	0	0	0.0172474	-0.122368	-0.182138	0.323394	0.308382	0	0	0.0524767	0.155882	-0.00900828	0.380652	-0.309129	0.0482516	1.68839	1.5708	0	0	0.579136	-0.295585	0.342824	1.39771	1.5708	0	0
5.03	0.585479	1.31336	1.06761	0.812679	0.933264	0.932277	0.722909	0.0088188	-0.30328	0.507706	-0.0280526	0	0	0.020064	-0.132566	-0.134591	0.364248	0.300959	0	0	0.0507358	0.167189	-0.00212841	0.373838	-0.308165	0.051799	1.69165	1.5708	0	0	0.571509	-0.29814	0.341272	1.3987	1.5708	0	0
5.04	0.595177	1.31479	1.05742	0.814587	0.942167	0.933843	0.712447	0.0136573	-0.301037	0.510752	-0.0292398	0	0	0.0258205	-0.139442	-0.135185	0.397229	0.288615	0	0	0.0506072	0.16833	-0.00100291	0.367595	-0.304613	0.0548837	1.69231	1.5708	0	0	0.564601	-0.301539	0.33923	1.39827	1.5708	0	0
5.05	0.608547	1.31633	1.04247	0.816585	0.951001	0.93557	0.698694	0.0205777	-0.300223	0.508686	-0.0295186	0	0	0.0326832	-0.147536	-0.137706	0.433119	0.274172	0	0	0.0494931	0.170409	0.000872043	0.362305	-0.301436	0.0591973	1.69262	1.5708	0	0	0.557754	-0.30492	0.336631	1.39754	1.5708	0	0
5.06	0.621945	1.31778	1.02686	0.818639	0.959674	0.937337	0.683455	0.0282053	-0.30039	0.503843	-0.0271062	0	0	0.0415785	-0.155926	-0.140812	0.472038	0.257229	0	0	0.0480995	0.172521	0.00348601	0.357679	-0.298545	0.0639845	1.69261	1.5708	0	0	0.551667	-0.308214	0.334311	1.39606	1.5708	0	0
5.07	0.636632	1.31902	1.00962	0.820705	0.968142	0.939094	0.667563	0.0363373	-0.301146	0.497641	-0.0226827	0	0	0.0526785	-0.164911	-0.144094	0.514194	0.237928	0	0	0.0462359	0.175141	0.00664507	0.354172	-0.296065	0.0690243	1.69228	1.5708	0	0	0.546428	-0.311242	0.331958	1.39424	1.5708	0	0
5.08	0.652308	1.31998	0.990845	0.822757	0.976361	0.940769	0.65214	0.0448381	-0.301426	0.491513	-0.017833	0	0	0.0660404	-0.174291	-0.147009	0.55972	0.21727	0	0	0.043861	0.178262	0.0107757	0.351671	-0.294399	0.07382	1.69206	1.5708	0	0	0.542381	-0.313878	0.329865	1.39216	1.5708	0	0
5.09	0.665777	1.3208	0.973729	0.824818	0.984342	0.942274	0.638302	0.0528575	-0.300883	0.48717	-0.0124591	0	0	0.0816408	-0.182763	-0.148293	0.607735	0.196245	0	0	0.0414052	0.180849	0.0160331	0.349486	-0.293197	0.077575	1.69228	1.5708	0	0	0.539689	-0.316224	0.328775	1.39007	1.5708	0	0
5.1	0.683378	1.32135	0.952483	0.826839	0.99213	0.943647	0.624568	0.061807	-0.300055	0.483408	-0.00680873	0	0	0.0985241	-0.191969	-0.148128	0.657745	0.17412	0	0	0.0380726	0.184531	0.0218281	0.348006	-0.293072	0.0812647	1.69316	1.5708	0	0	0.537994	-0.318126	0.328424	1.38807	1.5708	0	0
5.11	0.703178	1.32202	0.929042	0.828718	0.999749	0.94487	0.611169	0.0706454	-0.298675	0.481172	-0.000382782	0	0	0.1159	-0.200849	-0.146191	0.708193	0.151065	0	0	0.0342655	0.188878	0.0266607	0.348475	-0.293803	0.0878252	1.69273	1.5708	0	0	0.535989	-0.320314	0.327211	1.38639	1.5708	0	0
5.12	0.722955	1.32304	0.905809	0.83048	1.00722	0.94598	0.598091	0.0786	-0.297081	0.48034	0.00727132	0	0	0.133573	-0.208619	-0.142617	0.75848	0.127677	0	0	0.0297655	0.192828	0.0316127	0.349155	-0.295051	0.0942885	1.69225	1.5708	0	0	0.534687	-0.322217	0.325764	1.38449	1.5708	0	0
5.13	0.742603	1.32434	0.882847	0.83215	1.01455	0.947022	0.584957	0.0859557	-0.295265	0.479833	0.0158104	0	0	0.151106	-0.215526	-0.139035	0.8073	0.105849	0	0	0.024672	0.196405	0.0367521	0.349972	-0.296857	0.100618	1.69131	1.5708	0	0	0.534008	-0.323796	0.324354	1.38225	1.5708	0	0
5.14	0.764044	1.32575	0.858119	0.833754	1.02175	0.948081	0.570874	0.0936418	-0.292893	0.47794	0.0241603	0	0	0.167628	-0.222451	-0.136855	0.852934	0.0872597	0	0	0.0187885	0.200142	0.0420686	0.351162	-0.298987	0.106887	1.6898	1.5708	0	0	0.53373	-0.325044	0.323615	1.3798	1.5708	0	0
5.15	0.78928	1.32761	0.829734	0.835287	1.02882	0.949276	0.554695	0.101869	-0.289991	0.473541	0.0312443	0	0	0.182118	-0.229457	-0.136115	0.89392	0.0761247	0	0	0.0113471	0.204181	0.0470498	0.353527	-0.301236	0.113848	1.68758	1.5708	0	0	0.533252	-0.325765	0.321925	1.37804	1.5708	0	0
5.16	0.806416	1.33189	0.81328	0.83758	1.03588	0.950584	0.538814	0.107884	-0.285349	0.470444	0.0369057	0	0	0.196275	-0.24698	-0.141249	0.929639	0.0837296	0	0	0.00422145	0.202099	0.0505333	0.354437	-0.300908	0.120913	1.68553	1.5708	0	0	0.533639	-0.325402	0.321777	1.3767	1.5708	0	0
5.17	0.825171	1.3345	0.791292	0.839112	1.04264	0.951829	0.523732	0.113703	-0.283066	0.466927	0.0434437	0	0	0.210261	-0.251946	-0.140955	0.962614	0.0913031	0	0	-0.0031524	0.203557	0.0553473	0.356907	-0.301424	0.126122	1.68228	1.5708	0	0	0.53395	-0.325906	0.319231	1.37459	1.5708	0	0
5.18	0.843672	1.3372	0.769401	0.840591	1.04929	0.953128	0.508102	0.119422	-0.280534	0.462217	0.0498103	0	0	0.223603	-0.25644	-0.141714	0.990979	0.103487	0	0	-0.0106723	0.204723	0.0598712	0.359965	-0.301061	0.131042	1.67824	1.5708	0	0	0.534378	-0.326626	0.316469	1.37208	1.5708	0	0
5.19	0.859993	1.34001	0.749673	0.842009	1.05582	0.954456	0.492173	0.124756	-0.277605	0.456188	0.0560438	0	0	0.236677	-0.260108	-0.143284	1.01413	0.115554	0	0	-0.0178798	0.205225	0.0641113	0.363222	-0.300278	0.135961	1.67371	1.5708	0	0	0.534769	-0.32745	0.313662	1.36922	1.5708	0	0
5.2	0.873688	1.34271	0.732745	0.843346	1.06225	0.955769	0.476508	0.129431	-0.275028	0.449384	0.0620503	0	0	0.249851	-0.262797	-0.144673	1.03207	0.126949	0	0	-0.0244189	0.205172	0.067879	0.366567	-0.298859	0.140498	1.66864	1.5708	0	0	0.535219	-0.328258	0.311397	1.36626	1.5708	0	0
5.21	0.884829	1.34531	0.718537	0.844585	1.06857	0.957039	0.461341	0.133357	-0.272595	0.442423	0.0680953	0	0	0.263091	-0.264212	-0.145286	1.04483	0.136075	0	0	-0.0302965	0.204722	0.0712967	0.37002	-0.296995	0.14442	1.66353	1.5708	0	0	0.536088	-0.328951	0.309324	1.3628	1.5708	0	0
5.22	0.894211	1.3479	0.705981	0.845681	1.07481	0.958252	0.446711	0.136636	-0.269925	0.435762	0.073773	0	0	0.276017	-0.264687	-0.14562	1.05267	0.143181	0	0	-0.0357791	0.204104	0.074621	0.373957	-0.295399	0.148383	1.65872	1.5708	0	0	0.537404	-0.329516	0.307502	1.35894	1.5708	0	0
5.23	0.901157	1.35024	0.695906	0.846741	1.08101	0.959376	0.432919	0.139575	-0.266693	0.429281	0.0786652	0	0	0.289066	-0.264759	-0.146074	1.05596	0.149687	0	0	-0.0404275	0.203158	0.0777152	0.377783	-0.293493	0.152006	1.65398	1.5708	0	0	0.539067	-0.330436	0.306541	1.35492	1.5708	0	0
5.24	0.905381	1.35228	0.688438	0.847793	1.08715	0.960371	0.420313	0.142202	-0.262816	0.423432	0.0831464	0	0	0.302252	-0.264475	-0.146483	1.05518	0.155629	0	0	-0.0442412	0.201938	0.0809368	0.38124	-0.291166	0.154774	1.64951	1.5708	0	0	0.541111	-0.331645	0.306457	1.3506	1.5708	0	0
5.25	0.908849	1.35458	0.681418	0.848785	1.09326	0.961294	0.408081	0.144253	-0.258815	0.418361	0.0875682	0	0	0.314392	-0.263423	-0.147304	1.04981	0.160622	0	0	-0.0479961	0.200351	0.084503	0.384532	-0.288808	0.157269	1.64513	1.5708	0	0	0.543351	-0.333028	0.306966	1.3461	1.5708	0	0
5.26	0.91353	1.35717	0.672982	0.849698	1.09937	0.962151	0.395667	0.146042	-0.254669	0.413841	0.0923648	0	0	0.325213	-0.26229	-0.14853	1.04049	0.166527	0	0	-0.0520715	0.198755	0.0882949	0.387927	-0.286754	0.160022	1.64098	1.5708	0	0	0.54566	-0.334564	0.307816	1.34188	1.5708	0	0
5.27	0.917863	1.35963	0.664765	0.850595	1.10546	0.962912	0.383542	0.147672	-0.250527	0.409648	0.0980117	0	0	0.335474	-0.261194	-0.149762	1.02774	0.172165	0	0	-0.0560099	0.197171	0.0921234	0.391354	-0.284632	0.162733	1.63722	1.5708	0	0	0.548022	-0.336301	0.308799	1.33829	1.5708	0	0
5.28	0.923386	1.36246	0.655074	0.851442	1.11158	0.963662	0.370871	0.14894	-0.246368	0.405365	0.103008	0	0	0.3442	-0.259809	-0.151493	1.01146	0.177594	0	0	-0.0605067	0.19548	0.0962022	0.394637	-0.28269	0.165148	1.63374	1.5708	0	0	0.550344	-0.338161	0.309845	1.33518	1.5708	0	0
5.29	0.930759	1.36564	0.643141	0.852243	1.11771	0.964408	0.357427	0.150194	-0.24153	0.400643	0.106648	0	0	0.351286	-0.258458	-0.153859	0.991938	0.182473	0	0	-0.0655444	0.193742	0.100655	0.397766	-0.2806	0.167216	1.63061	1.5708	0	0	0.552688	-0.340096	0.31087	1.33176	1.5708	0	0
5.3	0.938855	1.36849	0.630219	0.853038	1.12378	0.96509	0.344177	0.151735	-0.236495	0.39572	0.10919	0	0	0.357734	-0.257597	-0.156422	0.969718	0.185634	0	0	-0.0705717	0.192334	0.105388	0.400982	-0.278897	0.169881	1.62791	1.5708	0	0	0.555204	-0.342082	0.311807	1.32776	1.5708	0	0
5.31	0.947959	1.37082	0.615729	0.853773	1.12977	0.965672	0.331371	0.153743	-0.231121	0.391044	0.111219	0	0	0.363682	-0.257374	-0.159225	0.945077	0.18754	0	0	-0.0756569	0.191644	0.110574	0.404674	-0.277695	0.173291	1.6253	1.5708	0	0	0.557672	-0.343907	0.31296	1.32376	1.5708	0	0
5.32	0.955192	1.37291	0.602717	0.854489	1.13574	0.966151	0.319279	0.155693	-0.225983	0.386632	0.113051	0	0	0.369232	-0.257214	-0.162255	0.918049	0.188671	0	0	-0.080261	0.1908	0.115916	0.408379	-0.275983	0.176402	1.62243	1.5708	0	0	0.560038	-0.345834	0.314364	1.32019	1.5708	0	0
5.33	0.959673	1.37474	0.592244	0.855203	1.14165	0.966533	0.308147	0.15748	-0.220847	0.382745	0.11517	0	0	0.374741	-0.257128	-0.166132	0.889159	0.189941	0	0	-0.084303	0.189709	0.121424	0.412197	-0.274095	0.17929	1.61949	1.5708	0	0	0.562631	-0.347744	0.315456	1.31662	1.5708	0	0
5.34	0.961214	1.37617	0.584612	0.855899	1.14748	0.966822	0.298128	0.159173	-0.214273	0.379471	0.117508	0	0	0.380558	-0.257382	-0.170815	0.859046	0.190376	0	0	-0.0877166	0.188606	0.127102	0.416093	-0.272257	0.181999	1.61654	1.5708	0	0	0.565492	-0.349476	0.316425	1.31286	1.5708	0	0
5.35	0.962256	1.37756	0.577616	0.856535	1.15332	0.967055	0.288521	0.160491	-0.208325	0.376553	0.119402	0	0	0.385935	-0.257879	-0.176008	0.827846	0.189308	0	0	-0.0909266	0.187427	0.132569	0.419858	-0.270068	0.184183	1.6135	1.5708	0	0	0.568289	-0.351152	0.317408	1.30916	1.5708	0	0
5.36	0.962234	1.37864	0.571754	0.857111	1.15914	0.9672	0.279409	0.161745	-0.202647	0.373899	0.121349	0	0	0.391185	-0.258527	-0.181258	0.795476	0.186592	0	0	-0.0937035	0.186409	0.13792	0.423542	-0.267865	0.186182	1.61075	1.5708	0	0	0.570911	-0.352703	0.318306	1.30565	1.5708	0	0
5.37	0.961915	1.37949	0.56629	0.857632	1.16494	0.967287	0.270651	0.162954	-0.196863	0.371693	0.123546	0	0	0.396166	-0.25937	-0.187091	0.761838	0.182246	0	0	-0.0962775	0.185538	0.143352	0.42679	-0.265755	0.187645	1.60852	1.5708	0	0	0.573459	-0.353958	0.319221	1.30221	1.5708	0	0
5.38	0.961624	1.38022	0.560735	0.858086	1.17074	0.96734	0.26217	0.164079	-0.19098	0.369688	0.125617	0	0	0.400906	-0.260412	-0.194256	0.727397	0.176407	0	0	-0.0987656	0.184774	0.148835	0.4297	-0.263679	0.188683	1.60662	1.5708	0	0	0.575659	-0.35508	0.319983	1.29947	1.5708	0	0
